{"title":"Arka Gdynia - Beroe  19-02-2011","uid":6189535,"size":1924183988,"categoryP":"other","categoryS":"other","magnet":"?xt=urn:btih:d1ac52bf200ca5004d693dc35ca83d826434fd8c&amp;dn=Arka+Gdynia+-+Beroe++19-02-2011&amp;tr=udp%3A%2F%2Ftracker.openbittorrent.com%3A80&amp;tr=udp%3A%2F%2Fopen.demonii.com%3A1337&amp;tr=udp%3A%2F%2Ftracker.coppersurfer.tk%3A6969&amp;tr=udp%3A%2F%2Fexodus.desync.com%3A6969","seeders":2,"leechers":0,"uploader":"spiralkinda","files":1,"time":1298229409,"description":"Language: Bulgarian\n\nFormat                           : AVI\nFormat/Info                      : Audio Video Interleave\nFile size                        : 1.79 GiB\nDuration                         : 1h 34mn\nOverall bit rate                 : 2 702 Kbps\nWriting library                  : VirtualDub build 32706/release\n\nVideo\nID                               : 0\nFormat                           : MPEG-4 Visual\nFormat settings, BVOP            : 1\nFormat settings, QPel            : No\nFormat settings, GMC             : No warppoints\nFormat settings, Matrix          : Default (H.263)\nMuxing mode                      : Packed bitstream\nCodec ID                         : DX50\nCodec ID/Hint                    : DivX 5\nDuration                         : 1h 34mn\nBit rate                         : 2 500 Kbps\nWidth                            : 720 pixels\nHeight                           : 404 pixels\nDisplay aspect ratio             : 16:9\nFrame rate                       : 25.000 fps\nColor space                      : YUV\nChroma subsampling               : 4:2:0\nBit depth                        : 8 bits\nScan type                        : Progressive\nCompression mode                 : Lossy\nBits/(Pixel*Frame)               : 0.344\nStream size                      : 1.66 GiB (93%)\nWriting library                  : DivX 6.8.5 (UTC 2009-08-20)\n\nAudio\nID                               : 1\nFormat                           : AC-3\nFormat/Info                      : Audio Coding 3\nMode extension                   : CM (complete main)\nCodec ID                         : 2000\nDuration                         : 1h 34mn\nBit rate mode                    : Constant\nBit rate                         : 192 Kbps\nChannel(s)                       : 2 channels\nChannel positions                : Front: L R\nSampling rate                    : 44.1 KHz\nBit depth                        : 16 bits\nCompression mode                 : Lossy\nDelay relative to video          : 662ms\nStream size                      : 130 MiB (7%)\nAlignment                        : Split accross interleaves\nInterleave, duration             : 40 ms (1.00 video frame)\nInterleave, preload duration     : 522 ms\n\n","torrent":{"xt":"urn:btih:d1ac52bf200ca5004d693dc35ca83d826434fd8c","amp;dn":"Arka+Gdynia+-+Beroe++19-02-2011","amp;tr":["udp%3A%2F%2Ftracker.openbittorrent.com%3A80","udp%3A%2F%2Fopen.demonii.com%3A1337","udp%3A%2F%2Ftracker.coppersurfer.tk%3A6969","udp%3A%2F%2Fexodus.desync.com%3A6969"],"infoHash":"d1ac52bf200ca5004d693dc35ca83d826434fd8c","infoHashBuffer":{"type":"Buffer","data":[209,172,82,191,32,12,165,0,77,105,61,195,92,168,61,130,100,52,253,140]},"announce":[],"urlList":[]}}